<mxfile host="app.diagrams.net" agent="Mozilla/5.0 (Macintosh; Intel Mac OS X 10_15_7) AppleWebKit/537.36 (KHTML, like Gecko) Chrome/136.0.0.0 Safari/537.36" version="27.0.5">
  <diagram id="C5RBs43oDa-KdzZeNtuy" name="Page-1">
    <mxGraphModel dx="2066" dy="2228" grid="1" gridSize="10" guides="1" tooltips="1" connect="1" arrows="1" fold="1" page="1" pageScale="1" pageWidth="827" pageHeight="1169" math="0" shadow="0">
      <root>
        <mxCell id="WIyWlLk6GJQsqaUBKTNV-0" />
        <mxCell id="WIyWlLk6GJQsqaUBKTNV-1" parent="WIyWlLk6GJQsqaUBKTNV-0" />
        <mxCell id="WIyWlLk6GJQsqaUBKTNV-3" value="其他系统" style="rounded=1;whiteSpace=wrap;html=1;fontSize=12;glass=0;strokeWidth=1;shadow=0;sketch=1;hachureGap=4;jiggle=2;curveFitting=1;strokeColor=default;align=center;verticalAlign=middle;fontFamily=Architects Daughter;fontSource=https%3A%2F%2Ffonts.googleapis.com%2Fcss%3Ffamily%3DArchitects%2BDaughter;fontColor=default;fillColor=default;" parent="WIyWlLk6GJQsqaUBKTNV-1" vertex="1">
          <mxGeometry x="70" y="80" width="120" height="540" as="geometry" />
        </mxCell>
        <mxCell id="s6RSNT70l_G22uAQsh2E-0" value="auth" style="rounded=1;whiteSpace=wrap;html=1;sketch=1;hachureGap=4;jiggle=2;curveFitting=1;fontFamily=Architects Daughter;fontSource=https%3A%2F%2Ffonts.googleapis.com%2Fcss%3Ffamily%3DArchitects%2BDaughter;" vertex="1" parent="WIyWlLk6GJQsqaUBKTNV-1">
          <mxGeometry x="520" y="220" width="130" height="400" as="geometry" />
        </mxCell>
        <mxCell id="s6RSNT70l_G22uAQsh2E-4" value="" style="edgeStyle=orthogonalEdgeStyle;rounded=0;sketch=1;hachureGap=4;jiggle=2;curveFitting=1;orthogonalLoop=1;jettySize=auto;html=1;fontFamily=Architects Daughter;fontSource=https%3A%2F%2Ffonts.googleapis.com%2Fcss%3Ffamily%3DArchitects%2BDaughter;" edge="1" parent="WIyWlLk6GJQsqaUBKTNV-1" source="s6RSNT70l_G22uAQsh2E-2" target="s6RSNT70l_G22uAQsh2E-3">
          <mxGeometry relative="1" as="geometry" />
        </mxCell>
        <mxCell id="s6RSNT70l_G22uAQsh2E-5" value="app name&lt;br&gt;重定向url 列表&lt;br&gt;证书公钥&lt;br&gt;回调地址" style="edgeLabel;html=1;align=center;verticalAlign=middle;resizable=0;points=[];sketch=1;hachureGap=4;jiggle=2;curveFitting=1;fontFamily=Architects Daughter;fontSource=https%3A%2F%2Ffonts.googleapis.com%2Fcss%3Ffamily%3DArchitects%2BDaughter;" vertex="1" connectable="0" parent="s6RSNT70l_G22uAQsh2E-4">
          <mxGeometry x="-0.32" y="1" relative="1" as="geometry">
            <mxPoint x="39" y="16" as="offset" />
          </mxGeometry>
        </mxCell>
        <mxCell id="s6RSNT70l_G22uAQsh2E-2" value="创建应用" style="rounded=1;whiteSpace=wrap;html=1;sketch=1;hachureGap=4;jiggle=2;curveFitting=1;fontFamily=Architects Daughter;fontSource=https%3A%2F%2Ffonts.googleapis.com%2Fcss%3Ffamily%3DArchitects%2BDaughter;" vertex="1" parent="WIyWlLk6GJQsqaUBKTNV-1">
          <mxGeometry x="842.25" y="30" width="120" height="60" as="geometry" />
        </mxCell>
        <mxCell id="s6RSNT70l_G22uAQsh2E-7" value="" style="edgeStyle=orthogonalEdgeStyle;rounded=0;sketch=1;hachureGap=4;jiggle=2;curveFitting=1;orthogonalLoop=1;jettySize=auto;html=1;fontFamily=Architects Daughter;fontSource=https%3A%2F%2Ffonts.googleapis.com%2Fcss%3Ffamily%3DArchitects%2BDaughter;" edge="1" parent="WIyWlLk6GJQsqaUBKTNV-1" source="s6RSNT70l_G22uAQsh2E-3" target="s6RSNT70l_G22uAQsh2E-6">
          <mxGeometry relative="1" as="geometry" />
        </mxCell>
        <mxCell id="s6RSNT70l_G22uAQsh2E-8" value="否" style="edgeLabel;html=1;align=center;verticalAlign=middle;resizable=0;points=[];sketch=1;hachureGap=4;jiggle=2;curveFitting=1;fontFamily=Architects Daughter;fontSource=https%3A%2F%2Ffonts.googleapis.com%2Fcss%3Ffamily%3DArchitects%2BDaughter;" vertex="1" connectable="0" parent="s6RSNT70l_G22uAQsh2E-7">
          <mxGeometry x="-0.1815" y="2" relative="1" as="geometry">
            <mxPoint as="offset" />
          </mxGeometry>
        </mxCell>
        <mxCell id="s6RSNT70l_G22uAQsh2E-10" value="" style="edgeStyle=orthogonalEdgeStyle;rounded=0;sketch=1;hachureGap=4;jiggle=2;curveFitting=1;orthogonalLoop=1;jettySize=auto;html=1;fontFamily=Architects Daughter;fontSource=https%3A%2F%2Ffonts.googleapis.com%2Fcss%3Ffamily%3DArchitects%2BDaughter;" edge="1" parent="WIyWlLk6GJQsqaUBKTNV-1" source="s6RSNT70l_G22uAQsh2E-3" target="s6RSNT70l_G22uAQsh2E-9">
          <mxGeometry relative="1" as="geometry" />
        </mxCell>
        <mxCell id="s6RSNT70l_G22uAQsh2E-11" value="是" style="edgeLabel;html=1;align=center;verticalAlign=middle;resizable=0;points=[];sketch=1;hachureGap=4;jiggle=2;curveFitting=1;fontFamily=Architects Daughter;fontSource=https%3A%2F%2Ffonts.googleapis.com%2Fcss%3Ffamily%3DArchitects%2BDaughter;" vertex="1" connectable="0" parent="s6RSNT70l_G22uAQsh2E-10">
          <mxGeometry x="-0.3009" y="3" relative="1" as="geometry">
            <mxPoint y="-7" as="offset" />
          </mxGeometry>
        </mxCell>
        <mxCell id="s6RSNT70l_G22uAQsh2E-3" value="应用名称查重" style="rhombus;whiteSpace=wrap;html=1;fontFamily=Architects Daughter;rounded=1;sketch=1;hachureGap=4;jiggle=2;curveFitting=1;fontSource=https%3A%2F%2Ffonts.googleapis.com%2Fcss%3Ffamily%3DArchitects%2BDaughter;" vertex="1" parent="WIyWlLk6GJQsqaUBKTNV-1">
          <mxGeometry x="840" y="190" width="124.5" height="120" as="geometry" />
        </mxCell>
        <mxCell id="s6RSNT70l_G22uAQsh2E-13" value="" style="edgeStyle=orthogonalEdgeStyle;rounded=0;sketch=1;hachureGap=4;jiggle=2;curveFitting=1;orthogonalLoop=1;jettySize=auto;html=1;fontFamily=Architects Daughter;fontSource=https%3A%2F%2Ffonts.googleapis.com%2Fcss%3Ffamily%3DArchitects%2BDaughter;" edge="1" parent="WIyWlLk6GJQsqaUBKTNV-1" source="s6RSNT70l_G22uAQsh2E-6" target="s6RSNT70l_G22uAQsh2E-12">
          <mxGeometry relative="1" as="geometry" />
        </mxCell>
        <mxCell id="s6RSNT70l_G22uAQsh2E-6" value="创建clientId、clientSecret" style="whiteSpace=wrap;html=1;fontFamily=Architects Daughter;rounded=1;sketch=1;hachureGap=4;jiggle=2;curveFitting=1;fontSource=https%3A%2F%2Ffonts.googleapis.com%2Fcss%3Ffamily%3DArchitects%2BDaughter;" vertex="1" parent="WIyWlLk6GJQsqaUBKTNV-1">
          <mxGeometry x="842.25" y="420" width="120" height="60" as="geometry" />
        </mxCell>
        <mxCell id="s6RSNT70l_G22uAQsh2E-14" style="edgeStyle=orthogonalEdgeStyle;rounded=0;sketch=1;hachureGap=4;jiggle=2;curveFitting=1;orthogonalLoop=1;jettySize=auto;html=1;exitX=0.5;exitY=1;exitDx=0;exitDy=0;entryX=1;entryY=0.5;entryDx=0;entryDy=0;fontFamily=Architects Daughter;fontSource=https%3A%2F%2Ffonts.googleapis.com%2Fcss%3Ffamily%3DArchitects%2BDaughter;" edge="1" parent="WIyWlLk6GJQsqaUBKTNV-1" source="s6RSNT70l_G22uAQsh2E-9" target="s6RSNT70l_G22uAQsh2E-12">
          <mxGeometry relative="1" as="geometry" />
        </mxCell>
        <mxCell id="s6RSNT70l_G22uAQsh2E-9" value="创建失败" style="whiteSpace=wrap;html=1;fontFamily=Architects Daughter;rounded=1;sketch=1;hachureGap=4;jiggle=2;curveFitting=1;fontSource=https%3A%2F%2Ffonts.googleapis.com%2Fcss%3Ffamily%3DArchitects%2BDaughter;" vertex="1" parent="WIyWlLk6GJQsqaUBKTNV-1">
          <mxGeometry x="1046.75" y="220" width="120" height="60" as="geometry" />
        </mxCell>
        <mxCell id="s6RSNT70l_G22uAQsh2E-12" value="结束" style="ellipse;whiteSpace=wrap;html=1;fontFamily=Architects Daughter;rounded=1;sketch=1;hachureGap=4;jiggle=2;curveFitting=1;fontSource=https%3A%2F%2Ffonts.googleapis.com%2Fcss%3Ffamily%3DArchitects%2BDaughter;" vertex="1" parent="WIyWlLk6GJQsqaUBKTNV-1">
          <mxGeometry x="862.25" y="550" width="80" height="80" as="geometry" />
        </mxCell>
        <mxCell id="s6RSNT70l_G22uAQsh2E-15" value="upms" style="rounded=1;whiteSpace=wrap;html=1;sketch=1;hachureGap=4;jiggle=2;curveFitting=1;fontFamily=Architects Daughter;fontSource=https%3A%2F%2Ffonts.googleapis.com%2Fcss%3Ffamily%3DArchitects%2BDaughter;" vertex="1" parent="WIyWlLk6GJQsqaUBKTNV-1">
          <mxGeometry x="520" y="90" width="130" height="120" as="geometry" />
        </mxCell>
        <mxCell id="s6RSNT70l_G22uAQsh2E-16" value="" style="endArrow=classic;html=1;rounded=0;sketch=1;hachureGap=4;jiggle=2;curveFitting=1;fontFamily=Architects Daughter;fontSource=https%3A%2F%2Ffonts.googleapis.com%2Fcss%3Ffamily%3DArchitects%2BDaughter;exitX=1.017;exitY=0.08;exitDx=0;exitDy=0;exitPerimeter=0;entryX=0;entryY=0.25;entryDx=0;entryDy=0;" edge="1" parent="WIyWlLk6GJQsqaUBKTNV-1" source="WIyWlLk6GJQsqaUBKTNV-3" target="s6RSNT70l_G22uAQsh2E-15">
          <mxGeometry width="50" height="50" relative="1" as="geometry">
            <mxPoint x="390" y="300" as="sourcePoint" />
            <mxPoint x="440" y="250" as="targetPoint" />
          </mxGeometry>
        </mxCell>
        <mxCell id="s6RSNT70l_G22uAQsh2E-18" value="appName&amp;nbsp; redirect_urls&amp;nbsp; public_cert&amp;nbsp; callbakUrl" style="text;html=1;align=center;verticalAlign=middle;resizable=0;points=[];autosize=1;strokeColor=none;fillColor=none;fontFamily=Architects Daughter;fontSource=https%3A%2F%2Ffonts.googleapis.com%2Fcss%3Ffamily%3DArchitects%2BDaughter;" vertex="1" parent="WIyWlLk6GJQsqaUBKTNV-1">
          <mxGeometry x="205.5" y="90" width="290" height="30" as="geometry" />
        </mxCell>
        <mxCell id="s6RSNT70l_G22uAQsh2E-19" style="edgeStyle=orthogonalEdgeStyle;rounded=0;sketch=1;hachureGap=4;jiggle=2;curveFitting=1;orthogonalLoop=1;jettySize=auto;html=1;exitX=0;exitY=0.5;exitDx=0;exitDy=0;entryX=1;entryY=0.13;entryDx=0;entryDy=0;entryPerimeter=0;fontFamily=Architects Daughter;fontSource=https%3A%2F%2Ffonts.googleapis.com%2Fcss%3Ffamily%3DArchitects%2BDaughter;" edge="1" parent="WIyWlLk6GJQsqaUBKTNV-1" source="s6RSNT70l_G22uAQsh2E-15" target="WIyWlLk6GJQsqaUBKTNV-3">
          <mxGeometry relative="1" as="geometry" />
        </mxCell>
        <mxCell id="s6RSNT70l_G22uAQsh2E-22" value="clienId&amp;nbsp; &amp;nbsp;clientSecret" style="edgeLabel;html=1;align=center;verticalAlign=middle;resizable=0;points=[];sketch=1;hachureGap=4;jiggle=2;curveFitting=1;fontFamily=Architects Daughter;fontSource=https%3A%2F%2Ffonts.googleapis.com%2Fcss%3Ffamily%3DArchitects%2BDaughter;" vertex="1" connectable="0" parent="s6RSNT70l_G22uAQsh2E-19">
          <mxGeometry x="0.4185" y="4" relative="1" as="geometry">
            <mxPoint x="74" y="6" as="offset" />
          </mxGeometry>
        </mxCell>
        <mxCell id="s6RSNT70l_G22uAQsh2E-23" value="" style="endArrow=classic;html=1;rounded=0;sketch=1;hachureGap=4;jiggle=2;curveFitting=1;fontFamily=Architects Daughter;fontSource=https%3A%2F%2Ffonts.googleapis.com%2Fcss%3Ffamily%3DArchitects%2BDaughter;exitX=1.008;exitY=0.343;exitDx=0;exitDy=0;exitPerimeter=0;entryX=0.008;entryY=0.108;entryDx=0;entryDy=0;entryPerimeter=0;" edge="1" parent="WIyWlLk6GJQsqaUBKTNV-1" source="WIyWlLk6GJQsqaUBKTNV-3" target="s6RSNT70l_G22uAQsh2E-0">
          <mxGeometry width="50" height="50" relative="1" as="geometry">
            <mxPoint x="390" y="300" as="sourcePoint" />
            <mxPoint x="440" y="250" as="targetPoint" />
          </mxGeometry>
        </mxCell>
        <mxCell id="s6RSNT70l_G22uAQsh2E-26" value="&lt;span class=&quot;token-line&quot; style=&quot;box-sizing: border-box; color: rgb(57, 58, 52); font-family: &amp;quot;Fira Code VF&amp;quot;, SFMono-Regular, Menlo, Monaco, Consolas, &amp;quot;Liberation Mono&amp;quot;, &amp;quot;Courier New&amp;quot;, monospace; font-style: normal; font-variant-ligatures: normal; font-variant-caps: normal; font-weight: 400; letter-spacing: normal; orphans: 2; text-align: start; text-indent: 0px; text-transform: none; widows: 2; word-spacing: 0px; -webkit-text-stroke-width: 0px; white-space: pre; background-color: rgb(246, 248, 250); text-decoration-thickness: initial; text-decoration-style: initial; text-decoration-color: initial;&quot;&gt;&lt;span class=&quot;token plain&quot; style=&quot;box-sizing: border-box;&quot;&gt;/login/oauth/authorize?&lt;/span&gt;&lt;/span&gt;&lt;div&gt;&lt;span class=&quot;token-line&quot; style=&quot;box-sizing: border-box; color: rgb(57, 58, 52); font-family: &amp;quot;Fira Code VF&amp;quot;, SFMono-Regular, Menlo, Monaco, Consolas, &amp;quot;Liberation Mono&amp;quot;, &amp;quot;Courier New&amp;quot;, monospace; font-style: normal; font-variant-ligatures: normal; font-variant-caps: normal; font-weight: 400; letter-spacing: normal; orphans: 2; text-align: start; text-indent: 0px; text-transform: none; widows: 2; word-spacing: 0px; -webkit-text-stroke-width: 0px; white-space: pre; background-color: rgb(246, 248, 250); text-decoration-thickness: initial; text-decoration-style: initial; text-decoration-color: initial;&quot;&gt;&lt;span class=&quot;token plain&quot; style=&quot;box-sizing: border-box;&quot;&gt;client_id=CLIENT_ID&amp;amp;&lt;/span&gt;&lt;/span&gt;&lt;div&gt;&lt;span class=&quot;token-line&quot; style=&quot;box-sizing: border-box; color: rgb(57, 58, 52); font-family: &amp;quot;Fira Code VF&amp;quot;, SFMono-Regular, Menlo, Monaco, Consolas, &amp;quot;Liberation Mono&amp;quot;, &amp;quot;Courier New&amp;quot;, monospace; font-style: normal; font-variant-ligatures: normal; font-variant-caps: normal; font-weight: 400; letter-spacing: normal; orphans: 2; text-align: start; text-indent: 0px; text-transform: none; widows: 2; word-spacing: 0px; -webkit-text-stroke-width: 0px; white-space: pre; background-color: rgb(246, 248, 250); text-decoration-thickness: initial; text-decoration-style: initial; text-decoration-color: initial;&quot;&gt;&lt;span class=&quot;token plain&quot; style=&quot;box-sizing: border-box;&quot;&gt;redirect_uri=REDIRECT_URI&amp;amp;&lt;/span&gt;&lt;/span&gt;&lt;/div&gt;&lt;div&gt;&lt;span class=&quot;token-line&quot; style=&quot;box-sizing: border-box; color: rgb(57, 58, 52); font-family: &amp;quot;Fira Code VF&amp;quot;, SFMono-Regular, Menlo, Monaco, Consolas, &amp;quot;Liberation Mono&amp;quot;, &amp;quot;Courier New&amp;quot;, monospace; font-style: normal; font-variant-ligatures: normal; font-variant-caps: normal; font-weight: 400; letter-spacing: normal; orphans: 2; text-align: start; text-indent: 0px; text-transform: none; widows: 2; word-spacing: 0px; -webkit-text-stroke-width: 0px; white-space: pre; background-color: rgb(246, 248, 250); text-decoration-thickness: initial; text-decoration-style: initial; text-decoration-color: initial;&quot;&gt;&lt;span class=&quot;token plain&quot; style=&quot;box-sizing: border-box;&quot;&gt;response_type=code&amp;amp;&lt;/span&gt;&lt;/span&gt;&lt;/div&gt;&lt;div&gt;&lt;span class=&quot;token-line&quot; style=&quot;box-sizing: border-box; color: rgb(57, 58, 52); font-family: &amp;quot;Fira Code VF&amp;quot;, SFMono-Regular, Menlo, Monaco, Consolas, &amp;quot;Liberation Mono&amp;quot;, &amp;quot;Courier New&amp;quot;, monospace; font-style: normal; font-variant-ligatures: normal; font-variant-caps: normal; font-weight: 400; letter-spacing: normal; orphans: 2; text-align: start; text-indent: 0px; text-transform: none; widows: 2; word-spacing: 0px; -webkit-text-stroke-width: 0px; white-space: pre; background-color: rgb(246, 248, 250); text-decoration-thickness: initial; text-decoration-style: initial; text-decoration-color: initial;&quot;&gt;&lt;span class=&quot;token plain&quot; style=&quot;box-sizing: border-box;&quot;&gt;scope=openid&amp;amp;&lt;/span&gt;&lt;/span&gt;&lt;/div&gt;&lt;div&gt;&lt;span class=&quot;token-line&quot; style=&quot;box-sizing: border-box; color: rgb(57, 58, 52); font-family: &amp;quot;Fira Code VF&amp;quot;, SFMono-Regular, Menlo, Monaco, Consolas, &amp;quot;Liberation Mono&amp;quot;, &amp;quot;Courier New&amp;quot;, monospace; font-style: normal; font-variant-ligatures: normal; font-variant-caps: normal; font-weight: 400; letter-spacing: normal; orphans: 2; text-align: start; text-indent: 0px; text-transform: none; widows: 2; word-spacing: 0px; -webkit-text-stroke-width: 0px; white-space: pre; background-color: rgb(246, 248, 250); text-decoration-thickness: initial; text-decoration-style: initial; text-decoration-color: initial;&quot;&gt;&lt;span class=&quot;token plain&quot; style=&quot;box-sizing: border-box;&quot;&gt;state=STATE&lt;/span&gt;&lt;/span&gt;&lt;/div&gt;&lt;/div&gt;" style="text;whiteSpace=wrap;html=1;fontFamily=Architects Daughter;fontSource=https%3A%2F%2Ffonts.googleapis.com%2Fcss%3Ffamily%3DArchitects%2BDaughter;fontSize=10;" vertex="1" parent="WIyWlLk6GJQsqaUBKTNV-1">
          <mxGeometry x="280" y="180" width="170" height="90" as="geometry" />
        </mxCell>
        <mxCell id="s6RSNT70l_G22uAQsh2E-27" value="&lt;span style=&quot;color: rgb(57, 58, 52); font-family: &amp;quot;Fira Code VF&amp;quot;, SFMono-Regular, Menlo, Monaco, Consolas, &amp;quot;Liberation Mono&amp;quot;, &amp;quot;Courier New&amp;quot;, monospace; font-style: normal; font-variant-ligatures: normal; font-variant-caps: normal; font-weight: 400; letter-spacing: normal; orphans: 2; text-align: start; text-indent: 0px; text-transform: none; widows: 2; word-spacing: 0px; -webkit-text-stroke-width: 0px; white-space: pre; background-color: rgb(246, 248, 250); text-decoration-thickness: initial; text-decoration-style: initial; text-decoration-color: initial; float: none; display: inline !important;&quot;&gt;https://REDIRECT_URI?code=CODE&amp;amp;state=STATE&lt;/span&gt;" style="text;whiteSpace=wrap;html=1;fontFamily=Architects Daughter;fontSource=https%3A%2F%2Ffonts.googleapis.com%2Fcss%3Ffamily%3DArchitects%2BDaughter;fontSize=10;" vertex="1" parent="WIyWlLk6GJQsqaUBKTNV-1">
          <mxGeometry x="220" y="280" width="261" height="20" as="geometry" />
        </mxCell>
        <mxCell id="s6RSNT70l_G22uAQsh2E-28" value="" style="endArrow=classic;html=1;rounded=0;sketch=1;hachureGap=4;jiggle=2;curveFitting=1;fontFamily=Architects Daughter;fontSource=https%3A%2F%2Ffonts.googleapis.com%2Fcss%3Ffamily%3DArchitects%2BDaughter;exitX=0;exitY=0.25;exitDx=0;exitDy=0;entryX=1.008;entryY=0.448;entryDx=0;entryDy=0;entryPerimeter=0;" edge="1" parent="WIyWlLk6GJQsqaUBKTNV-1">
          <mxGeometry width="50" height="50" relative="1" as="geometry">
            <mxPoint x="520" y="300" as="sourcePoint" />
            <mxPoint x="190.96000000000004" y="301.9200000000001" as="targetPoint" />
          </mxGeometry>
        </mxCell>
        <mxCell id="s6RSNT70l_G22uAQsh2E-29" value="&lt;div&gt;&lt;span class=&quot;token-line&quot; style=&quot;box-sizing: border-box; color: rgb(57, 58, 52); font-family: &amp;quot;Fira Code VF&amp;quot;, SFMono-Regular, Menlo, Monaco, Consolas, &amp;quot;Liberation Mono&amp;quot;, &amp;quot;Courier New&amp;quot;, monospace; font-style: normal; font-variant-ligatures: normal; font-variant-caps: normal; font-weight: 400; letter-spacing: normal; orphans: 2; text-align: start; text-indent: 0px; text-transform: none; widows: 2; word-spacing: 0px; -webkit-text-stroke-width: 0px; white-space: pre; background-color: rgb(246, 248, 250); text-decoration-thickness: initial; text-decoration-style: initial; text-decoration-color: initial;&quot;&gt;&lt;span class=&quot;token punctuation&quot; style=&quot;box-sizing: border-box; color: rgb(57, 58, 52);&quot;&gt;&lt;font&gt;/v1/oauth/access_token [POST]&lt;br&gt;&lt;/font&gt;&lt;/span&gt;&lt;/span&gt;&lt;/div&gt;&lt;span class=&quot;token-line&quot; style=&quot;box-sizing: border-box; color: rgb(57, 58, 52); font-family: &amp;quot;Fira Code VF&amp;quot;, SFMono-Regular, Menlo, Monaco, Consolas, &amp;quot;Liberation Mono&amp;quot;, &amp;quot;Courier New&amp;quot;, monospace; font-style: normal; font-variant-ligatures: normal; font-variant-caps: normal; font-weight: 400; letter-spacing: normal; orphans: 2; text-align: start; text-indent: 0px; text-transform: none; widows: 2; word-spacing: 0px; -webkit-text-stroke-width: 0px; white-space: pre; background-color: rgb(246, 248, 250); text-decoration-thickness: initial; text-decoration-style: initial; text-decoration-color: initial;&quot;&gt;&lt;span class=&quot;token punctuation&quot; style=&quot;box-sizing: border-box; color: rgb(57, 58, 52);&quot;&gt;{&lt;/span&gt;&lt;span class=&quot;token plain&quot; style=&quot;box-sizing: border-box;&quot;&gt;&lt;/span&gt;&lt;br style=&quot;box-sizing: border-box;&quot;&gt;&lt;/span&gt;&lt;span class=&quot;token-line&quot; style=&quot;box-sizing: border-box; color: rgb(57, 58, 52); font-family: &amp;quot;Fira Code VF&amp;quot;, SFMono-Regular, Menlo, Monaco, Consolas, &amp;quot;Liberation Mono&amp;quot;, &amp;quot;Courier New&amp;quot;, monospace; font-style: normal; font-variant-ligatures: normal; font-variant-caps: normal; font-weight: 400; letter-spacing: normal; orphans: 2; text-align: start; text-indent: 0px; text-transform: none; widows: 2; word-spacing: 0px; -webkit-text-stroke-width: 0px; white-space: pre; background-color: rgb(246, 248, 250); text-decoration-thickness: initial; text-decoration-style: initial; text-decoration-color: initial;&quot;&gt;&lt;span class=&quot;token plain&quot; style=&quot;box-sizing: border-box;&quot;&gt;    &lt;/span&gt;&lt;span class=&quot;token property&quot; style=&quot;box-sizing: border-box; color: rgb(54, 172, 170);&quot;&gt;&quot;grant_type&quot;&lt;/span&gt;&lt;span class=&quot;token operator&quot; style=&quot;box-sizing: border-box; color: rgb(57, 58, 52);&quot;&gt;:&lt;/span&gt;&lt;span class=&quot;token plain&quot; style=&quot;box-sizing: border-box;&quot;&gt; &lt;/span&gt;&lt;span class=&quot;token string&quot; style=&quot;box-sizing: border-box; color: rgb(227, 17, 108);&quot;&gt;&quot;authorization_code&quot;&lt;/span&gt;&lt;span class=&quot;token punctuation&quot; style=&quot;box-sizing: border-box; color: rgb(57, 58, 52);&quot;&gt;,&lt;/span&gt;&lt;span class=&quot;token plain&quot; style=&quot;box-sizing: border-box;&quot;&gt;&lt;/span&gt;&lt;br style=&quot;box-sizing: border-box;&quot;&gt;&lt;/span&gt;&lt;span class=&quot;token-line&quot; style=&quot;box-sizing: border-box; color: rgb(57, 58, 52); font-family: &amp;quot;Fira Code VF&amp;quot;, SFMono-Regular, Menlo, Monaco, Consolas, &amp;quot;Liberation Mono&amp;quot;, &amp;quot;Courier New&amp;quot;, monospace; font-style: normal; font-variant-ligatures: normal; font-variant-caps: normal; font-weight: 400; letter-spacing: normal; orphans: 2; text-align: start; text-indent: 0px; text-transform: none; widows: 2; word-spacing: 0px; -webkit-text-stroke-width: 0px; white-space: pre; background-color: rgb(246, 248, 250); text-decoration-thickness: initial; text-decoration-style: initial; text-decoration-color: initial;&quot;&gt;&lt;span class=&quot;token plain&quot; style=&quot;box-sizing: border-box;&quot;&gt;    &lt;/span&gt;&lt;span class=&quot;token property&quot; style=&quot;box-sizing: border-box; color: rgb(54, 172, 170);&quot;&gt;&quot;client_id&quot;&lt;/span&gt;&lt;span class=&quot;token operator&quot; style=&quot;box-sizing: border-box; color: rgb(57, 58, 52);&quot;&gt;:&lt;/span&gt;&lt;span class=&quot;token plain&quot; style=&quot;box-sizing: border-box;&quot;&gt; ClientId&lt;/span&gt;&lt;span class=&quot;token punctuation&quot; style=&quot;box-sizing: border-box; color: rgb(57, 58, 52);&quot;&gt;,&lt;/span&gt;&lt;span class=&quot;token plain&quot; style=&quot;box-sizing: border-box;&quot;&gt;&lt;/span&gt;&lt;br style=&quot;box-sizing: border-box;&quot;&gt;&lt;/span&gt;&lt;span class=&quot;token-line&quot; style=&quot;box-sizing: border-box; color: rgb(57, 58, 52); font-family: &amp;quot;Fira Code VF&amp;quot;, SFMono-Regular, Menlo, Monaco, Consolas, &amp;quot;Liberation Mono&amp;quot;, &amp;quot;Courier New&amp;quot;, monospace; font-style: normal; font-variant-ligatures: normal; font-variant-caps: normal; font-weight: 400; letter-spacing: normal; orphans: 2; text-align: start; text-indent: 0px; text-transform: none; widows: 2; word-spacing: 0px; -webkit-text-stroke-width: 0px; white-space: pre; background-color: rgb(246, 248, 250); text-decoration-thickness: initial; text-decoration-style: initial; text-decoration-color: initial;&quot;&gt;&lt;span class=&quot;token plain&quot; style=&quot;box-sizing: border-box;&quot;&gt;    &lt;/span&gt;&lt;span class=&quot;token property&quot; style=&quot;box-sizing: border-box; color: rgb(54, 172, 170);&quot;&gt;&quot;client_secret&quot;&lt;/span&gt;&lt;span class=&quot;token operator&quot; style=&quot;box-sizing: border-box; color: rgb(57, 58, 52);&quot;&gt;:&lt;/span&gt;&lt;span class=&quot;token plain&quot; style=&quot;box-sizing: border-box;&quot;&gt; ClientSecret&lt;/span&gt;&lt;span class=&quot;token punctuation&quot; style=&quot;box-sizing: border-box; color: rgb(57, 58, 52);&quot;&gt;,&lt;/span&gt;&lt;span class=&quot;token plain&quot; style=&quot;box-sizing: border-box;&quot;&gt;&lt;/span&gt;&lt;br style=&quot;box-sizing: border-box;&quot;&gt;&lt;/span&gt;&lt;span class=&quot;token-line&quot; style=&quot;box-sizing: border-box; color: rgb(57, 58, 52); font-family: &amp;quot;Fira Code VF&amp;quot;, SFMono-Regular, Menlo, Monaco, Consolas, &amp;quot;Liberation Mono&amp;quot;, &amp;quot;Courier New&amp;quot;, monospace; font-style: normal; font-variant-ligatures: normal; font-variant-caps: normal; font-weight: 400; letter-spacing: normal; orphans: 2; text-align: start; text-indent: 0px; text-transform: none; widows: 2; word-spacing: 0px; -webkit-text-stroke-width: 0px; white-space: pre; background-color: rgb(246, 248, 250); text-decoration-thickness: initial; text-decoration-style: initial; text-decoration-color: initial;&quot;&gt;&lt;span class=&quot;token plain&quot; style=&quot;box-sizing: border-box;&quot;&gt;    &lt;/span&gt;&lt;span class=&quot;token property&quot; style=&quot;box-sizing: border-box; color: rgb(54, 172, 170);&quot;&gt;&quot;code&quot;&lt;/span&gt;&lt;span class=&quot;token operator&quot; style=&quot;box-sizing: border-box; color: rgb(57, 58, 52);&quot;&gt;:&lt;/span&gt;&lt;span class=&quot;token plain&quot; style=&quot;box-sizing: border-box;&quot;&gt; Code&lt;/span&gt;&lt;span class=&quot;token punctuation&quot; style=&quot;box-sizing: border-box; color: rgb(57, 58, 52);&quot;&gt;,&lt;/span&gt;&lt;span class=&quot;token plain&quot; style=&quot;box-sizing: border-box;&quot;&gt;&lt;/span&gt;&lt;br style=&quot;box-sizing: border-box;&quot;&gt;&lt;/span&gt;&lt;span class=&quot;token-line&quot; style=&quot;box-sizing: border-box; color: rgb(57, 58, 52); font-family: &amp;quot;Fira Code VF&amp;quot;, SFMono-Regular, Menlo, Monaco, Consolas, &amp;quot;Liberation Mono&amp;quot;, &amp;quot;Courier New&amp;quot;, monospace; font-style: normal; font-variant-ligatures: normal; font-variant-caps: normal; font-weight: 400; letter-spacing: normal; orphans: 2; text-align: start; text-indent: 0px; text-transform: none; widows: 2; word-spacing: 0px; -webkit-text-stroke-width: 0px; white-space: pre; background-color: rgb(246, 248, 250); text-decoration-thickness: initial; text-decoration-style: initial; text-decoration-color: initial;&quot;&gt;&lt;span class=&quot;token plain&quot; style=&quot;box-sizing: border-box;&quot;&gt;&lt;/span&gt;&lt;span class=&quot;token punctuation&quot; style=&quot;box-sizing: border-box; color: rgb(57, 58, 52);&quot;&gt;}&lt;/span&gt;&lt;/span&gt;" style="text;whiteSpace=wrap;html=1;fontFamily=Architects Daughter;fontSource=https%3A%2F%2Ffonts.googleapis.com%2Fcss%3Ffamily%3DArchitects%2BDaughter;fontSize=10;" vertex="1" parent="WIyWlLk6GJQsqaUBKTNV-1">
          <mxGeometry x="230" y="330" width="240" height="100" as="geometry" />
        </mxCell>
        <mxCell id="s6RSNT70l_G22uAQsh2E-30" value="" style="endArrow=classic;html=1;rounded=0;sketch=1;hachureGap=4;jiggle=2;curveFitting=1;fontFamily=Architects Daughter;fontSource=https%3A%2F%2Ffonts.googleapis.com%2Fcss%3Ffamily%3DArchitects%2BDaughter;exitX=1.008;exitY=0.646;exitDx=0;exitDy=0;exitPerimeter=0;entryX=0.008;entryY=0.52;entryDx=0;entryDy=0;entryPerimeter=0;" edge="1" parent="WIyWlLk6GJQsqaUBKTNV-1" source="WIyWlLk6GJQsqaUBKTNV-3" target="s6RSNT70l_G22uAQsh2E-0">
          <mxGeometry width="50" height="50" relative="1" as="geometry">
            <mxPoint x="390" y="300" as="sourcePoint" />
            <mxPoint x="440" y="250" as="targetPoint" />
          </mxGeometry>
        </mxCell>
        <mxCell id="s6RSNT70l_G22uAQsh2E-31" value="" style="endArrow=classic;html=1;rounded=0;sketch=1;hachureGap=4;jiggle=2;curveFitting=1;fontFamily=Architects Daughter;fontSource=https%3A%2F%2Ffonts.googleapis.com%2Fcss%3Ffamily%3DArchitects%2BDaughter;entryX=1;entryY=0.722;entryDx=0;entryDy=0;entryPerimeter=0;" edge="1" parent="WIyWlLk6GJQsqaUBKTNV-1">
          <mxGeometry width="50" height="50" relative="1" as="geometry">
            <mxPoint x="515.5" y="560.12" as="sourcePoint" />
            <mxPoint x="185.5" y="560.0000000000001" as="targetPoint" />
          </mxGeometry>
        </mxCell>
        <mxCell id="s6RSNT70l_G22uAQsh2E-32" value="&lt;span class=&quot;token-line&quot; style=&quot;box-sizing: border-box; color: rgb(57, 58, 52); font-family: &amp;quot;Fira Code VF&amp;quot;, SFMono-Regular, Menlo, Monaco, Consolas, &amp;quot;Liberation Mono&amp;quot;, &amp;quot;Courier New&amp;quot;, monospace; white-space-collapse: preserve; background-color: rgb(246, 248, 250);&quot;&gt;&lt;span class=&quot;token punctuation&quot; style=&quot;box-sizing: border-box;&quot;&gt;{&lt;/span&gt;&lt;span class=&quot;token plain&quot; style=&quot;box-sizing: border-box;&quot;&gt;&lt;/span&gt;&lt;br style=&quot;box-sizing: border-box;&quot;&gt;&lt;/span&gt;&lt;span class=&quot;token-line&quot; style=&quot;box-sizing: border-box; color: rgb(57, 58, 52); font-family: &amp;quot;Fira Code VF&amp;quot;, SFMono-Regular, Menlo, Monaco, Consolas, &amp;quot;Liberation Mono&amp;quot;, &amp;quot;Courier New&amp;quot;, monospace; white-space-collapse: preserve; background-color: rgb(246, 248, 250);&quot;&gt;&lt;span class=&quot;token plain&quot; style=&quot;box-sizing: border-box;&quot;&gt;    &lt;/span&gt;&lt;span class=&quot;token property&quot; style=&quot;box-sizing: border-box; color: rgb(54, 172, 170);&quot;&gt;&quot;access_token&quot;&lt;/span&gt;&lt;span class=&quot;token operator&quot; style=&quot;box-sizing: border-box;&quot;&gt;:&lt;/span&gt;&lt;span class=&quot;token plain&quot; style=&quot;box-sizing: border-box;&quot;&gt; &lt;/span&gt;&lt;span class=&quot;token string&quot; style=&quot;box-sizing: border-box; color: rgb(227, 17, 108);&quot;&gt;&quot;eyJhb...&quot;&lt;/span&gt;&lt;span class=&quot;token punctuation&quot; style=&quot;box-sizing: border-box;&quot;&gt;,&lt;/span&gt;&lt;span class=&quot;token plain&quot; style=&quot;box-sizing: border-box;&quot;&gt;&lt;/span&gt;&lt;br style=&quot;box-sizing: border-box;&quot;&gt;&lt;/span&gt;&lt;span class=&quot;token-line&quot; style=&quot;box-sizing: border-box; color: rgb(57, 58, 52); font-family: &amp;quot;Fira Code VF&amp;quot;, SFMono-Regular, Menlo, Monaco, Consolas, &amp;quot;Liberation Mono&amp;quot;, &amp;quot;Courier New&amp;quot;, monospace; white-space-collapse: preserve; background-color: rgb(246, 248, 250);&quot;&gt;&lt;span class=&quot;token plain&quot; style=&quot;box-sizing: border-box;&quot;&gt;    &lt;/span&gt;&lt;span class=&quot;token property&quot; style=&quot;box-sizing: border-box; color: rgb(54, 172, 170);&quot;&gt;&quot;openId&quot;&lt;/span&gt;&lt;span class=&quot;token operator&quot; style=&quot;box-sizing: border-box;&quot;&gt;:&lt;/span&gt;&lt;span class=&quot;token plain&quot; style=&quot;box-sizing: border-box;&quot;&gt; &lt;/span&gt;&lt;span class=&quot;token string&quot; style=&quot;box-sizing: border-box; color: rgb(227, 17, 108);&quot;&gt;&quot;eyJhb...&quot;&lt;/span&gt;&lt;span class=&quot;token punctuation&quot; style=&quot;box-sizing: border-box;&quot;&gt;,&lt;/span&gt;&lt;/span&gt;&lt;span class=&quot;token-line&quot; style=&quot;box-sizing: border-box; color: rgb(57, 58, 52); font-family: &amp;quot;Fira Code VF&amp;quot;, SFMono-Regular, Menlo, Monaco, Consolas, &amp;quot;Liberation Mono&amp;quot;, &amp;quot;Courier New&amp;quot;, monospace; white-space-collapse: preserve; background-color: rgb(246, 248, 250);&quot;&gt;&lt;br style=&quot;box-sizing: border-box;&quot;&gt;&lt;/span&gt;&lt;span class=&quot;token-line&quot; style=&quot;box-sizing: border-box; color: rgb(57, 58, 52); font-family: &amp;quot;Fira Code VF&amp;quot;, SFMono-Regular, Menlo, Monaco, Consolas, &amp;quot;Liberation Mono&amp;quot;, &amp;quot;Courier New&amp;quot;, monospace; white-space-collapse: preserve; background-color: rgb(246, 248, 250);&quot;&gt;&lt;span class=&quot;token plain&quot; style=&quot;box-sizing: border-box;&quot;&gt;    &lt;/span&gt;&lt;span class=&quot;token property&quot; style=&quot;box-sizing: border-box; color: rgb(54, 172, 170);&quot;&gt;&quot;expiredAt&quot;&lt;/span&gt;&lt;span class=&quot;token operator&quot; style=&quot;box-sizing: border-box;&quot;&gt;:&lt;/span&gt;&lt;span class=&quot;token plain&quot; style=&quot;box-sizing: border-box;&quot;&gt; &lt;/span&gt;&lt;span class=&quot;token number&quot; style=&quot;box-sizing: border-box; color: rgb(54, 172, 170);&quot;&gt;10080&lt;/span&gt;&lt;span class=&quot;token punctuation&quot; style=&quot;box-sizing: border-box;&quot;&gt;,&lt;/span&gt;&lt;span class=&quot;token plain&quot; style=&quot;box-sizing: border-box;&quot;&gt;&lt;/span&gt;&lt;br style=&quot;box-sizing: border-box;&quot;&gt;&lt;/span&gt;&lt;span class=&quot;token-line&quot; style=&quot;box-sizing: border-box; color: rgb(57, 58, 52); font-family: &amp;quot;Fira Code VF&amp;quot;, SFMono-Regular, Menlo, Monaco, Consolas, &amp;quot;Liberation Mono&amp;quot;, &amp;quot;Courier New&amp;quot;, monospace; white-space-collapse: preserve; background-color: rgb(246, 248, 250);&quot;&gt;&lt;span class=&quot;token plain&quot; style=&quot;box-sizing: border-box;&quot;&gt;    &lt;/span&gt;&lt;span class=&quot;token property&quot; style=&quot;box-sizing: border-box; color: rgb(54, 172, 170);&quot;&gt;&quot;scope&quot;&lt;/span&gt;&lt;span class=&quot;token operator&quot; style=&quot;box-sizing: border-box;&quot;&gt;:&lt;/span&gt;&lt;span class=&quot;token plain&quot; style=&quot;box-sizing: border-box;&quot;&gt; &lt;/span&gt;&lt;span class=&quot;token string&quot; style=&quot;box-sizing: border-box; color: rgb(227, 17, 108);&quot;&gt;&quot;openid&quot;&lt;/span&gt;&lt;span class=&quot;token plain&quot; style=&quot;box-sizing: border-box;&quot;&gt;&lt;/span&gt;&lt;br style=&quot;box-sizing: border-box;&quot;&gt;&lt;/span&gt;&lt;span class=&quot;token-line&quot; style=&quot;box-sizing: border-box; color: rgb(57, 58, 52); font-family: &amp;quot;Fira Code VF&amp;quot;, SFMono-Regular, Menlo, Monaco, Consolas, &amp;quot;Liberation Mono&amp;quot;, &amp;quot;Courier New&amp;quot;, monospace; white-space-collapse: preserve; background-color: rgb(246, 248, 250);&quot;&gt;&lt;span class=&quot;token plain&quot; style=&quot;box-sizing: border-box;&quot;&gt;&lt;/span&gt;&lt;span class=&quot;token punctuation&quot; style=&quot;box-sizing: border-box;&quot;&gt;}&lt;/span&gt;&lt;/span&gt;" style="text;html=1;align=left;verticalAlign=middle;resizable=0;points=[];autosize=1;strokeColor=none;fillColor=none;fontFamily=Architects Daughter;fontSource=https%3A%2F%2Ffonts.googleapis.com%2Fcss%3Ffamily%3DArchitects%2BDaughter;fontSize=10;" vertex="1" parent="WIyWlLk6GJQsqaUBKTNV-1">
          <mxGeometry x="230" y="470" width="210" height="90" as="geometry" />
        </mxCell>
        <mxCell id="s6RSNT70l_G22uAQsh2E-34" value="&lt;h1 style=&quot;margin-top: 0px;&quot;&gt;callbackUrl&lt;/h1&gt;&lt;p&gt;用户信息有变更，通过callbackUrl通知其他系统，需要用到三方系统上传的公钥&lt;/p&gt;" style="text;html=1;whiteSpace=wrap;overflow=hidden;rounded=0;fontFamily=Architects Daughter;fontSource=https%3A%2F%2Ffonts.googleapis.com%2Fcss%3Ffamily%3DArchitects%2BDaughter;" vertex="1" parent="WIyWlLk6GJQsqaUBKTNV-1">
          <mxGeometry x="360" y="-30" width="180" height="120" as="geometry" />
        </mxCell>
        <mxCell id="s6RSNT70l_G22uAQsh2E-37" value="" style="edgeStyle=orthogonalEdgeStyle;rounded=0;sketch=1;hachureGap=4;jiggle=2;curveFitting=1;orthogonalLoop=1;jettySize=auto;html=1;fontFamily=Architects Daughter;fontSource=https%3A%2F%2Ffonts.googleapis.com%2Fcss%3Ffamily%3DArchitects%2BDaughter;" edge="1" parent="WIyWlLk6GJQsqaUBKTNV-1" source="s6RSNT70l_G22uAQsh2E-35" target="s6RSNT70l_G22uAQsh2E-36">
          <mxGeometry relative="1" as="geometry" />
        </mxCell>
        <mxCell id="s6RSNT70l_G22uAQsh2E-35" value="用户信息变更" style="rounded=1;whiteSpace=wrap;html=1;sketch=1;hachureGap=4;jiggle=2;curveFitting=1;fontFamily=Architects Daughter;fontSource=https%3A%2F%2Ffonts.googleapis.com%2Fcss%3Ffamily%3DArchitects%2BDaughter;" vertex="1" parent="WIyWlLk6GJQsqaUBKTNV-1">
          <mxGeometry x="1310" y="20" width="120" height="60" as="geometry" />
        </mxCell>
        <mxCell id="s6RSNT70l_G22uAQsh2E-41" value="" style="edgeStyle=orthogonalEdgeStyle;rounded=0;sketch=1;hachureGap=4;jiggle=2;curveFitting=1;orthogonalLoop=1;jettySize=auto;html=1;fontFamily=Architects Daughter;fontSource=https%3A%2F%2Ffonts.googleapis.com%2Fcss%3Ffamily%3DArchitects%2BDaughter;" edge="1" parent="WIyWlLk6GJQsqaUBKTNV-1" source="s6RSNT70l_G22uAQsh2E-36" target="s6RSNT70l_G22uAQsh2E-40">
          <mxGeometry relative="1" as="geometry" />
        </mxCell>
        <mxCell id="s6RSNT70l_G22uAQsh2E-36" value="hook callbackUrl" style="rounded=1;whiteSpace=wrap;html=1;sketch=1;hachureGap=4;jiggle=2;curveFitting=1;fontFamily=Architects Daughter;fontSource=https%3A%2F%2Ffonts.googleapis.com%2Fcss%3Ffamily%3DArchitects%2BDaughter;" vertex="1" parent="WIyWlLk6GJQsqaUBKTNV-1">
          <mxGeometry x="1310" y="160" width="120" height="60" as="geometry" />
        </mxCell>
        <mxCell id="s6RSNT70l_G22uAQsh2E-43" value="" style="edgeStyle=orthogonalEdgeStyle;rounded=0;sketch=1;hachureGap=4;jiggle=2;curveFitting=1;orthogonalLoop=1;jettySize=auto;html=1;fontFamily=Architects Daughter;fontSource=https%3A%2F%2Ffonts.googleapis.com%2Fcss%3Ffamily%3DArchitects%2BDaughter;" edge="1" parent="WIyWlLk6GJQsqaUBKTNV-1" source="s6RSNT70l_G22uAQsh2E-40" target="s6RSNT70l_G22uAQsh2E-42">
          <mxGeometry relative="1" as="geometry" />
        </mxCell>
        <mxCell id="s6RSNT70l_G22uAQsh2E-50" value="成功" style="edgeLabel;html=1;align=center;verticalAlign=middle;resizable=0;points=[];sketch=1;hachureGap=4;jiggle=2;curveFitting=1;fontFamily=Architects Daughter;fontSource=https%3A%2F%2Ffonts.googleapis.com%2Fcss%3Ffamily%3DArchitects%2BDaughter;" vertex="1" connectable="0" parent="s6RSNT70l_G22uAQsh2E-43">
          <mxGeometry x="0.1333" y="-1" relative="1" as="geometry">
            <mxPoint as="offset" />
          </mxGeometry>
        </mxCell>
        <mxCell id="s6RSNT70l_G22uAQsh2E-47" value="" style="edgeStyle=orthogonalEdgeStyle;rounded=0;sketch=1;hachureGap=4;jiggle=2;curveFitting=1;orthogonalLoop=1;jettySize=auto;html=1;fontFamily=Architects Daughter;fontSource=https%3A%2F%2Ffonts.googleapis.com%2Fcss%3Ffamily%3DArchitects%2BDaughter;" edge="1" parent="WIyWlLk6GJQsqaUBKTNV-1" source="s6RSNT70l_G22uAQsh2E-40" target="s6RSNT70l_G22uAQsh2E-46">
          <mxGeometry relative="1" as="geometry" />
        </mxCell>
        <mxCell id="s6RSNT70l_G22uAQsh2E-49" value="失败" style="edgeLabel;html=1;align=center;verticalAlign=middle;resizable=0;points=[];sketch=1;hachureGap=4;jiggle=2;curveFitting=1;fontFamily=Architects Daughter;fontSource=https%3A%2F%2Ffonts.googleapis.com%2Fcss%3Ffamily%3DArchitects%2BDaughter;" vertex="1" connectable="0" parent="s6RSNT70l_G22uAQsh2E-47">
          <mxGeometry x="-0.3" y="2" relative="1" as="geometry">
            <mxPoint as="offset" />
          </mxGeometry>
        </mxCell>
        <mxCell id="s6RSNT70l_G22uAQsh2E-40" value="执行hook&lt;br&gt;是否成功" style="rhombus;whiteSpace=wrap;html=1;fontFamily=Architects Daughter;rounded=1;sketch=1;hachureGap=4;jiggle=2;curveFitting=1;fontSource=https%3A%2F%2Ffonts.googleapis.com%2Fcss%3Ffamily%3DArchitects%2BDaughter;" vertex="1" parent="WIyWlLk6GJQsqaUBKTNV-1">
          <mxGeometry x="1330" y="290" width="80" height="80" as="geometry" />
        </mxCell>
        <mxCell id="s6RSNT70l_G22uAQsh2E-45" value="" style="edgeStyle=orthogonalEdgeStyle;rounded=0;sketch=1;hachureGap=4;jiggle=2;curveFitting=1;orthogonalLoop=1;jettySize=auto;html=1;fontFamily=Architects Daughter;fontSource=https%3A%2F%2Ffonts.googleapis.com%2Fcss%3Ffamily%3DArchitects%2BDaughter;" edge="1" parent="WIyWlLk6GJQsqaUBKTNV-1" source="s6RSNT70l_G22uAQsh2E-42" target="s6RSNT70l_G22uAQsh2E-44">
          <mxGeometry relative="1" as="geometry" />
        </mxCell>
        <mxCell id="s6RSNT70l_G22uAQsh2E-42" value="记录hook" style="whiteSpace=wrap;html=1;fontFamily=Architects Daughter;rounded=1;sketch=1;hachureGap=4;jiggle=2;curveFitting=1;fontSource=https%3A%2F%2Ffonts.googleapis.com%2Fcss%3Ffamily%3DArchitects%2BDaughter;" vertex="1" parent="WIyWlLk6GJQsqaUBKTNV-1">
          <mxGeometry x="1470" y="300" width="120" height="60" as="geometry" />
        </mxCell>
        <mxCell id="s6RSNT70l_G22uAQsh2E-44" value="结束" style="ellipse;whiteSpace=wrap;html=1;fontFamily=Architects Daughter;rounded=1;sketch=1;hachureGap=4;jiggle=2;curveFitting=1;fontSource=https%3A%2F%2Ffonts.googleapis.com%2Fcss%3Ffamily%3DArchitects%2BDaughter;" vertex="1" parent="WIyWlLk6GJQsqaUBKTNV-1">
          <mxGeometry x="1490" y="430" width="80" height="80" as="geometry" />
        </mxCell>
        <mxCell id="s6RSNT70l_G22uAQsh2E-52" value="" style="edgeStyle=orthogonalEdgeStyle;rounded=0;sketch=1;hachureGap=4;jiggle=2;curveFitting=1;orthogonalLoop=1;jettySize=auto;html=1;fontFamily=Architects Daughter;fontSource=https%3A%2F%2Ffonts.googleapis.com%2Fcss%3Ffamily%3DArchitects%2BDaughter;" edge="1" parent="WIyWlLk6GJQsqaUBKTNV-1" source="s6RSNT70l_G22uAQsh2E-46" target="s6RSNT70l_G22uAQsh2E-51">
          <mxGeometry relative="1" as="geometry" />
        </mxCell>
        <mxCell id="s6RSNT70l_G22uAQsh2E-46" value="记录hook，丢入nsq&lt;br&gt;累加下次消费时间&lt;br&gt;失败次数" style="whiteSpace=wrap;html=1;fontFamily=Architects Daughter;rounded=1;sketch=1;hachureGap=4;jiggle=2;curveFitting=1;fontSource=https%3A%2F%2Ffonts.googleapis.com%2Fcss%3Ffamily%3DArchitects%2BDaughter;" vertex="1" parent="WIyWlLk6GJQsqaUBKTNV-1">
          <mxGeometry x="1310" y="430" width="120" height="60" as="geometry" />
        </mxCell>
        <mxCell id="s6RSNT70l_G22uAQsh2E-53" style="edgeStyle=orthogonalEdgeStyle;rounded=0;sketch=1;hachureGap=4;jiggle=2;curveFitting=1;orthogonalLoop=1;jettySize=auto;html=1;exitX=1;exitY=0.5;exitDx=0;exitDy=0;entryX=0.5;entryY=1;entryDx=0;entryDy=0;fontFamily=Architects Daughter;fontSource=https%3A%2F%2Ffonts.googleapis.com%2Fcss%3Ffamily%3DArchitects%2BDaughter;" edge="1" parent="WIyWlLk6GJQsqaUBKTNV-1" source="s6RSNT70l_G22uAQsh2E-51" target="s6RSNT70l_G22uAQsh2E-44">
          <mxGeometry relative="1" as="geometry" />
        </mxCell>
        <mxCell id="s6RSNT70l_G22uAQsh2E-56" value="是" style="edgeLabel;html=1;align=center;verticalAlign=middle;resizable=0;points=[];sketch=1;hachureGap=4;jiggle=2;curveFitting=1;fontFamily=Architects Daughter;fontSource=https%3A%2F%2Ffonts.googleapis.com%2Fcss%3Ffamily%3DArchitects%2BDaughter;" vertex="1" connectable="0" parent="s6RSNT70l_G22uAQsh2E-53">
          <mxGeometry x="-0.4" y="-5" relative="1" as="geometry">
            <mxPoint as="offset" />
          </mxGeometry>
        </mxCell>
        <mxCell id="s6RSNT70l_G22uAQsh2E-55" style="edgeStyle=orthogonalEdgeStyle;rounded=0;sketch=1;hachureGap=4;jiggle=2;curveFitting=1;orthogonalLoop=1;jettySize=auto;html=1;exitX=0;exitY=0.5;exitDx=0;exitDy=0;entryX=0;entryY=0.5;entryDx=0;entryDy=0;fontFamily=Architects Daughter;fontSource=https%3A%2F%2Ffonts.googleapis.com%2Fcss%3Ffamily%3DArchitects%2BDaughter;" edge="1" parent="WIyWlLk6GJQsqaUBKTNV-1" source="s6RSNT70l_G22uAQsh2E-51" target="s6RSNT70l_G22uAQsh2E-40">
          <mxGeometry relative="1" as="geometry">
            <Array as="points">
              <mxPoint x="1250" y="600" />
              <mxPoint x="1250" y="330" />
            </Array>
          </mxGeometry>
        </mxCell>
        <mxCell id="s6RSNT70l_G22uAQsh2E-57" value="否" style="edgeLabel;html=1;align=center;verticalAlign=middle;resizable=0;points=[];sketch=1;hachureGap=4;jiggle=2;curveFitting=1;fontFamily=Architects Daughter;fontSource=https%3A%2F%2Ffonts.googleapis.com%2Fcss%3Ffamily%3DArchitects%2BDaughter;" vertex="1" connectable="0" parent="s6RSNT70l_G22uAQsh2E-55">
          <mxGeometry x="-0.0372" y="3" relative="1" as="geometry">
            <mxPoint as="offset" />
          </mxGeometry>
        </mxCell>
        <mxCell id="s6RSNT70l_G22uAQsh2E-51" value="失败次数达到5次" style="rhombus;whiteSpace=wrap;html=1;fontFamily=Architects Daughter;rounded=1;sketch=1;hachureGap=4;jiggle=2;curveFitting=1;fontSource=https%3A%2F%2Ffonts.googleapis.com%2Fcss%3Ffamily%3DArchitects%2BDaughter;" vertex="1" parent="WIyWlLk6GJQsqaUBKTNV-1">
          <mxGeometry x="1330" y="560" width="80" height="80" as="geometry" />
        </mxCell>
      </root>
    </mxGraphModel>
  </diagram>
</mxfile>
